<svg width="21" height="24" viewBox="0 0 21 24" fill="none" xmlns="http://www.w3.org/2000/svg">
<g clip-path="url(#clip0_5_226)">
<path d="M19.3363 3.30175C18.5573 3.94925 17.6949 4.44449 16.7821 4.76838C16.2922 4.10457 15.6411 3.63409 14.9169 3.42055C14.1927 3.20701 13.4303 3.26072 12.7328 3.57442C12.0353 3.88813 11.4364 4.44668 11.0171 5.17455C10.5978 5.90241 10.3784 6.76447 10.3884 7.64412V8.6027C8.95884 8.64638 7.54233 8.27277 6.265 7.51514C4.98767 6.75751 3.88917 5.63938 3.06733 4.26033C3.06733 4.26033 -0.186468 12.8876 7.13457 16.7219C5.4593 18.0619 3.4636 18.7339 1.44043 18.639C8.76147 23.4319 17.7094 18.639 17.7094 7.61536C17.7087 7.34835 17.6869 7.082 17.6443 6.81974C18.4745 5.85492 19.0604 4.63678 19.3363 3.30175V3.30175Z" stroke="white" stroke-width="2" stroke-linecap="round" stroke-linejoin="round"/>
</g>
<defs>
<clipPath id="clip0_5_226">
<rect width="19.5228" height="23.0059" fill="white" transform="translate(0.626953 0.426025)"/>
</clipPath>
</defs>
</svg>
